<svg width="29" height="26" viewBox="0 0 40 40" fill="none" xmlns="http://www.w3.org/2000/svg">
<path d="M6.40309 17.04L5.07775 16.8907L6.40309 17.04ZM4.32842 35.7067L5.65375 35.8533L4.32842 35.7067ZM35.6724 35.7067L34.3471 35.8533L35.6724 35.7067ZM33.5978 17.04L34.9231 16.8907L33.5978 17.04ZM5.07775 16.8907L3.00309 35.5573L5.65375 35.8507L7.72842 17.184L5.07775 16.8907ZM6.97909 40H33.0218V37.3333H6.97909V40ZM36.9978 35.5573L34.9231 16.8907L32.2724 17.184L34.3471 35.8507L36.9951 35.5573H36.9978ZM30.9444 13.3333H9.05642V16H30.9498V13.3333H30.9444ZM34.9231 16.8907C34.8142 15.9124 34.3483 15.0086 33.6148 14.3523C32.8812 13.696 31.9314 13.3332 30.9471 13.3333V16C31.2753 16 31.592 16.121 31.8366 16.34C32.0811 16.559 32.2363 16.8604 32.2724 17.1867L34.9231 16.8933V16.8907ZM33.0218 40C33.5842 39.9997 34.1403 39.8808 34.6537 39.651C35.1671 39.4213 35.6262 39.0858 36.0012 38.6666C36.3761 38.2473 36.6585 37.7537 36.8297 37.2179C37.001 36.6822 37.0573 36.1163 36.9951 35.5573L34.3471 35.8507C34.3681 36.0372 34.3495 36.2261 34.2925 36.405C34.2355 36.5838 34.1413 36.7486 34.0162 36.8886C33.8911 37.0286 33.7379 37.1405 33.5665 37.2172C33.3951 37.2938 33.2095 37.3334 33.0218 37.3333V40ZM3.00309 35.5573C2.94082 36.1166 2.99723 36.6826 3.16865 37.2186C3.34007 37.7545 3.62263 38.2483 3.99788 38.6675C4.37313 39.0868 4.83261 39.4222 5.34632 39.6518C5.86003 39.8814 6.4164 40.0001 6.97909 40V37.3333C6.79161 37.3333 6.60623 37.2938 6.43507 37.2173C6.2639 37.1409 6.11078 37.0291 5.98571 36.8895C5.86065 36.7498 5.76644 36.5853 5.70924 36.4068C5.65204 36.2283 5.63313 36.0397 5.65375 35.8533L3.00309 35.56V35.5573ZM7.72842 17.184C7.76514 16.8582 7.92058 16.5574 8.16506 16.339C8.40954 16.1206 8.72592 15.9999 9.05375 16V13.3333C8.0699 13.3338 7.12074 13.6969 6.38773 14.3532C5.65473 15.0095 5.1893 15.9129 5.08042 16.8907L7.72842 17.184ZM13.3338 10.6667V9.33333H10.6671V10.6667H13.3338ZM26.6671 9.33333V10.6667H29.3338V9.33333H26.6671ZM20.0004 2.66667C21.7685 2.66667 23.4642 3.36905 24.7145 4.61929C25.9647 5.86953 26.6671 7.56522 26.6671 9.33333H29.3338C29.3338 6.85798 28.3504 4.48401 26.6001 2.73367C24.8497 0.98333 22.4758 0 20.0004 0V2.66667ZM13.3338 9.33333C13.3338 7.56522 14.0361 5.86953 15.2864 4.61929C16.5366 3.36905 18.2323 2.66667 20.0004 2.66667V0C17.5251 0 15.1511 0.98333 13.4008 2.73367C11.6504 4.48401 10.6671 6.85798 10.6671 9.33333H13.3338Z" fill="#FCFCFC"/>
</svg>
