<svg width="30" height="30" viewBox="0 0 40 40" fill="none" xmlns="http://www.w3.org/2000/svg">
<path fill-rule="evenodd" clip-rule="evenodd" d="M8.74107 26.6667V30C8.74107 30.442 8.91666 30.866 9.22922 31.1785C9.54178 31.4911 9.96571 31.6667 10.4077 31.6667H35.4077C35.8498 31.6667 36.2737 31.4911 36.5862 31.1785C36.8988 30.866 37.0744 30.442 37.0744 30V16.6667C37.0744 16.2246 36.8988 15.8007 36.5862 15.4882C36.2737 15.1756 35.8498 15 35.4077 15H33.3327V18.0575C33.5611 18.3982 33.8699 18.6773 34.2318 18.8702C34.5937 19.0631 34.9976 19.1637 35.4077 19.1633V27.5C34.7472 27.5037 34.1149 27.7688 33.6491 28.2372C33.1833 28.7057 32.9219 29.3394 32.9219 30H12.9036C12.8948 29.3432 12.6281 28.7161 12.1609 28.2543C11.6938 27.7925 11.0638 27.5329 10.4069 27.5317V26.6667H8.74023H8.74107Z" fill="#FCFCFC"/>
<path d="M20.8327 16.6663C20.8327 17.5504 20.4815 18.3982 19.8564 19.0234C19.2312 19.6485 18.3834 19.9997 17.4993 19.9997C16.6153 19.9997 15.7674 19.6485 15.1423 19.0234C14.5172 18.3982 14.166 17.5504 14.166 16.6663C14.166 15.7823 14.5172 14.9344 15.1423 14.3093C15.7674 13.6842 16.6153 13.333 17.4993 13.333C18.3834 13.333 19.2312 13.6842 19.8564 14.3093C20.4815 14.9344 20.8327 15.7823 20.8327 16.6663Z" fill="white"/>
<path fill-rule="evenodd" clip-rule="evenodd" d="M4.99967 8.33301C4.55765 8.33301 4.13372 8.5086 3.82116 8.82116C3.5086 9.13372 3.33301 9.55765 3.33301 9.99967V23.333C3.33301 23.775 3.5086 24.199 3.82116 24.5115C4.13372 24.8241 4.55765 24.9997 4.99967 24.9997H29.9997C30.4417 24.9997 30.8656 24.8241 31.1782 24.5115C31.4907 24.199 31.6663 23.775 31.6663 23.333V9.99967C31.6663 9.55765 31.4907 9.13372 31.1782 8.82116C30.8656 8.5086 30.4417 8.33301 29.9997 8.33301H4.99967ZM7.49801 9.99967H27.5005C27.5012 10.6621 27.7648 11.2971 28.2334 11.7652C28.702 12.2334 29.3373 12.4963 29.9997 12.4963V20.833C29.339 20.8363 28.7064 21.1012 28.2406 21.5697C27.7747 22.0383 27.5134 22.6723 27.5138 23.333H7.49634C7.48802 22.676 7.22141 22.0488 6.75419 21.5868C6.28697 21.1249 5.65669 20.8655 4.99967 20.8647V12.4997C5.3279 12.4997 5.65291 12.435 5.95613 12.3093C6.25935 12.1837 6.53484 11.9995 6.76685 11.7673C6.99887 11.5352 7.18286 11.2596 7.30831 10.9563C7.43377 10.653 7.49823 10.3279 7.49801 9.99967Z" fill="white"/>
</svg>
