<svg width="40" height="40" viewBox="0 0 40 40" fill="none" xmlns="http://www.w3.org/2000/svg">
<path d="M3.33301 36.6667L11.6663 13.3333L26.6663 28.3333L3.33301 36.6667ZM24.2497 20.9167L22.4997 19.1667L31.833 9.83333C32.7219 8.94444 33.7913 8.5 35.0413 8.5C36.2913 8.5 37.3608 8.94444 38.2497 9.83333L39.2497 10.8333L37.4997 12.5833L36.4997 11.5833C36.1108 11.1944 35.6247 11 35.0413 11C34.458 11 33.9719 11.1944 33.583 11.5833L24.2497 20.9167ZM17.583 14.25L15.833 12.5L16.833 11.5C17.2219 11.1111 17.4163 10.6389 17.4163 10.0833C17.4163 9.52778 17.2219 9.05556 16.833 8.66667L15.7497 7.58333L17.4997 5.83333L18.583 6.91667C19.4719 7.80556 19.9163 8.86111 19.9163 10.0833C19.9163 11.3056 19.4719 12.3611 18.583 13.25L17.583 14.25ZM20.9163 17.5833L19.1663 15.8333L25.1663 9.83333C25.5552 9.44445 25.7497 8.95833 25.7497 8.375C25.7497 7.79167 25.5552 7.30556 25.1663 6.91667L22.4997 4.25L24.2497 2.5L26.9163 5.16667C27.8052 6.05556 28.2497 7.125 28.2497 8.375C28.2497 9.625 27.8052 10.6944 26.9163 11.5833L20.9163 17.5833ZM27.583 24.25L25.833 22.5L28.4997 19.8333C29.3886 18.9444 30.458 18.5 31.708 18.5C32.958 18.5 34.0275 18.9444 34.9163 19.8333L37.583 22.5L35.833 24.25L33.1663 21.5833C32.7775 21.1944 32.2913 21 31.708 21C31.1247 21 30.6386 21.1944 30.2497 21.5833L27.583 24.25Z" fill="#DA4905"/>
</svg>
