<svg width="18" height="18" viewBox="0 0 18 18" fill="none" xmlns="http://www.w3.org/2000/svg">
<path fill-rule="evenodd" clip-rule="evenodd" d="M9.00093 0.446167C6.68339 0.446167 6.39255 0.4563 5.48232 0.497723C4.57386 0.539324 3.95377 0.683147 3.41118 0.894172C2.84993 1.11213 2.37384 1.40369 1.89952 1.87818C1.42485 2.3525 1.13329 2.82859 0.914624 3.38966C0.703066 3.93243 0.559065 4.5527 0.518175 5.4608C0.477464 6.37103 0.466797 6.66205 0.466797 8.97959C0.466797 11.2971 0.477108 11.5871 0.518353 12.4973C0.560131 13.4058 0.703955 14.0259 0.914802 14.5684C1.13294 15.1297 1.4245 15.6058 1.89899 16.0801C2.37313 16.5548 2.84922 16.847 3.41012 17.065C3.95306 17.276 4.57333 17.4199 5.4816 17.4615C6.39184 17.5029 6.68251 17.513 8.99986 17.513C11.3176 17.513 11.6075 17.5029 12.5178 17.4615C13.4262 17.4199 14.047 17.276 14.59 17.065C15.151 16.847 15.6264 16.5548 16.1006 16.0801C16.5752 15.6058 16.8668 15.1297 17.0855 14.5686C17.2952 14.0259 17.4392 13.4056 17.4819 12.4975C17.5228 11.5873 17.5335 11.2971 17.5335 8.97959C17.5335 6.66205 17.5228 6.37121 17.4819 5.46097C17.4392 4.55252 17.2952 3.93243 17.0855 3.38984C16.8668 2.82859 16.5752 2.3525 16.1006 1.87818C15.6259 1.40351 15.1512 1.11195 14.5894 0.894172C14.0454 0.683147 13.425 0.539324 12.5165 0.497723C11.6063 0.4563 11.3165 0.446167 8.99826 0.446167H9.00093ZM8.23537 1.98394C8.46258 1.98358 8.71609 1.98394 9.00089 1.98394C11.2793 1.98394 11.5494 1.99211 12.4491 2.033C13.2811 2.07105 13.7327 2.21007 14.0335 2.32687C14.4317 2.48154 14.7156 2.66643 15.0141 2.9651C15.3128 3.26377 15.4977 3.54822 15.6527 3.94645C15.7695 4.24689 15.9087 4.69845 15.9466 5.53046C15.9875 6.43003 15.9963 6.70025 15.9963 8.97761C15.9963 11.255 15.9875 11.5252 15.9466 12.4248C15.9085 13.2568 15.7695 13.7083 15.6527 14.0088C15.498 14.407 15.3128 14.6906 15.0141 14.9891C14.7154 15.2877 14.4319 15.4726 14.0335 15.6273C13.733 15.7446 13.2811 15.8833 12.4491 15.9213C11.5495 15.9622 11.2793 15.9711 9.00089 15.9711C6.72229 15.9711 6.45224 15.9622 5.55268 15.9213C4.72067 15.8829 4.26911 15.7439 3.96813 15.6271C3.5699 15.4724 3.28546 15.2875 2.98679 14.9889C2.68812 14.6902 2.50323 14.4065 2.3482 14.0081C2.2314 13.7076 2.0922 13.2561 2.05433 12.424C2.01344 11.5245 2.00527 11.2543 2.00527 8.97548C2.00527 6.6967 2.01344 6.42789 2.05433 5.52833C2.09238 4.69632 2.2314 4.24476 2.3482 3.94396C2.50287 3.54573 2.68812 3.26128 2.98679 2.96261C3.28546 2.66394 3.5699 2.47905 3.96813 2.32403C4.26893 2.20669 4.72067 2.06803 5.55268 2.0298C6.33989 1.99425 6.64496 1.98358 8.23537 1.9818V1.98394ZM13.556 3.40084C12.9906 3.40084 12.532 3.85898 12.532 4.4245C12.532 4.98984 12.9906 5.44851 13.556 5.44851C14.1213 5.44851 14.58 4.98984 14.58 4.4245C14.58 3.85916 14.1213 3.40084 13.556 3.40084ZM9.00095 4.5973C6.58083 4.5973 4.61868 6.55945 4.61868 8.97957C4.61868 11.3997 6.58083 13.3609 9.00095 13.3609C11.4211 13.3609 13.3825 11.3997 13.3825 8.97957C13.3825 6.55945 11.4211 4.5973 9.00095 4.5973ZM9.00091 6.13509C10.5718 6.13509 11.8454 7.40853 11.8454 8.97957C11.8454 10.5504 10.5718 11.824 9.00091 11.824C7.42987 11.824 6.15644 10.5504 6.15644 8.97957C6.15644 7.40853 7.42987 6.13509 9.00091 6.13509Z" fill="white"/>
</svg>
