<svg width="30" height="30" viewBox="0 0 40 40" fill="none" xmlns="http://www.w3.org/2000/svg">
<path d="M3.33301 8.33301H36.6663V33.333H3.33301V8.33301ZM33.333 29.9997V11.6663H6.66634V29.9997H33.333ZM28.333 13.333C28.333 14.2171 28.6842 15.0649 29.3093 15.69C29.9344 16.3152 30.7823 16.6663 31.6663 16.6663V24.9997C30.7823 24.9997 29.9344 25.3509 29.3093 25.976C28.6842 26.6011 28.333 27.449 28.333 28.333H11.6663C11.6663 27.449 11.3152 26.6011 10.69 25.976C10.0649 25.3509 9.21706 24.9997 8.33301 24.9997V16.6663C9.21706 16.6663 10.0649 16.3152 10.69 15.69C11.3152 15.0649 11.6663 14.2171 11.6663 13.333H28.333ZM28.333 21.6663V19.9997C28.333 18.1663 27.2163 16.6663 25.833 16.6663C24.4497 16.6663 23.333 18.1663 23.333 19.9997V21.6663C23.333 23.4997 24.4497 24.9997 25.833 24.9997C27.2163 24.9997 28.333 23.4997 28.333 21.6663ZM25.833 18.333C26.054 18.333 26.266 18.4208 26.4223 18.5771C26.5785 18.7334 26.6663 18.9453 26.6663 19.1663V22.4997C26.6663 22.7207 26.5785 22.9327 26.4223 23.0889C26.266 23.2452 26.054 23.333 25.833 23.333C25.612 23.333 25.4 23.2452 25.2438 23.0889C25.0875 22.9327 24.9997 22.7207 24.9997 22.4997V19.1663C24.9997 18.9453 25.0875 18.7334 25.2438 18.5771C25.4 18.4208 25.612 18.333 25.833 18.333ZM21.6663 21.6663V19.9997C21.6663 18.1663 20.5497 16.6663 19.1663 16.6663C17.783 16.6663 16.6663 18.1663 16.6663 19.9997V21.6663C16.6663 23.4997 17.783 24.9997 19.1663 24.9997C20.5497 24.9997 21.6663 23.4997 21.6663 21.6663ZM19.1663 18.333C19.3874 18.333 19.5993 18.4208 19.7556 18.5771C19.9119 18.7334 19.9997 18.9453 19.9997 19.1663V22.4997C19.9997 22.7207 19.9119 22.9327 19.7556 23.0889C19.5993 23.2452 19.3874 23.333 19.1663 23.333C18.9453 23.333 18.7334 23.2452 18.5771 23.0889C18.4208 22.9327 18.333 22.7207 18.333 22.4997V19.1663C18.333 18.9453 18.4208 18.7334 18.5771 18.5771C18.7334 18.4208 18.9453 18.333 19.1663 18.333ZM13.333 24.9997H14.9997V16.6663H13.333L11.6663 17.4997V19.1663L13.333 18.333V24.9997Z" fill="#FCFCFC"/>
</svg>
