<svg width="18" height="13" viewBox="0 0 18 13" fill="none" xmlns="http://www.w3.org/2000/svg">
<path fill-rule="evenodd" clip-rule="evenodd" d="M15.6679 0.479501C16.4022 0.68101 16.9805 1.27476 17.1768 2.02876C17.5335 3.39531 17.5335 6.24661 17.5335 6.24661C17.5335 6.24661 17.5335 9.09782 17.1768 10.4645C16.9805 11.2185 16.4022 11.8122 15.6679 12.0138C14.3371 12.3799 9.00013 12.3799 9.00013 12.3799C9.00013 12.3799 3.66321 12.3799 2.3323 12.0138C1.59795 11.8122 1.01962 11.2185 0.823354 10.4645C0.466797 9.09782 0.466797 6.24661 0.466797 6.24661C0.466797 6.24661 0.466797 3.39531 0.823354 2.02876C1.01962 1.27476 1.59795 0.68101 2.3323 0.479501C3.66321 0.113281 9.00013 0.113281 9.00013 0.113281C9.00013 0.113281 14.3371 0.113281 15.6679 0.479501ZM7.40015 3.84656V9.17989L11.6668 6.51333L7.40015 3.84656Z" fill="white"/>
</svg>
