<svg width="18" height="18" viewBox="0 0 18 18" fill="none" xmlns="http://www.w3.org/2000/svg">
<path fill-rule="evenodd" clip-rule="evenodd" d="M17.5335 8.96779C17.5335 9.54488 17.4747 10.1212 17.3593 10.6829C17.2468 11.2313 17.0801 11.7697 16.8618 12.2844C16.6485 12.79 16.3839 13.2772 16.0747 13.7316C15.7701 14.1831 15.4192 14.6066 15.0338 14.9928C14.6475 15.3772 14.2225 15.7271 13.7712 16.033C13.3154 16.34 12.8275 16.6042 12.3216 16.8186C11.8061 17.0357 11.2665 17.2022 10.7186 17.3145C10.1561 17.4302 9.57767 17.4893 8.99975 17.4893C8.42139 17.4893 7.84303 17.4302 7.28133 17.3145C6.73257 17.2022 6.19295 17.0357 5.67792 16.8186C5.17207 16.6042 4.68369 16.34 4.22784 16.033C3.77657 15.7271 3.35155 15.3772 2.96611 14.9928C2.58027 14.6066 2.2294 14.1831 1.92439 13.7316C1.61687 13.2772 1.35184 12.79 1.13768 12.2844C0.919305 11.7697 0.752236 11.2313 0.63931 10.6829C0.525147 10.1212 0.466797 9.54488 0.466797 8.96779C0.466797 8.39027 0.525114 7.81274 0.639343 7.25222C0.75227 6.70382 0.919338 6.16458 1.13771 5.65072C1.35187 5.14477 1.6169 4.65713 1.92442 4.20274C2.22943 3.75088 2.5803 3.32811 2.96614 2.94156C3.35158 2.55708 3.7766 2.20802 4.22787 1.90261C4.68372 1.59427 5.1721 1.33009 5.67795 1.11537C6.19298 0.89771 6.73257 0.730883 7.28137 0.619387C7.84306 0.504555 8.42142 0.446289 8.99978 0.446289C9.57771 0.446289 10.1561 0.504555 10.7186 0.619387C11.2665 0.730916 11.8061 0.897743 12.3216 1.11537C12.8275 1.33005 13.3154 1.59427 13.7713 1.90261C14.2225 2.20802 14.6476 2.55708 15.0338 2.94156C15.4193 3.32811 15.7701 3.75088 16.0747 4.20274C16.3839 4.65713 16.6485 5.1448 16.8618 5.65072C17.0801 6.16458 17.2468 6.70382 17.3593 7.25222C17.4747 7.81274 17.5335 8.39027 17.5335 8.96779ZM5.89038 2.38567C3.85817 3.34394 2.34143 5.21383 1.86848 7.46737C2.0606 7.46903 5.09742 7.50732 8.59634 6.579C7.33505 4.34127 5.98748 2.51511 5.89038 2.38567ZM9.20012 7.69957C5.44786 8.8213 1.84724 8.74059 1.71808 8.73562C1.71597 8.81383 1.71223 8.88954 1.71223 8.96778C1.71223 10.8372 2.41851 12.5415 3.57941 13.8302C3.5769 13.8264 5.5712 10.2934 9.50389 9.02355C9.59888 8.99193 9.69558 8.96361 9.7914 8.93617C9.6085 8.5226 9.40887 8.10817 9.20012 7.69957ZM13.8125 3.50621C12.5295 2.3765 10.8448 1.69125 8.99972 1.69125C8.4076 1.69125 7.83298 1.76283 7.28254 1.89513C7.3917 2.04162 8.76054 3.8549 10.0068 6.14003C12.7566 5.11065 13.7945 3.53282 13.8125 3.50621ZM10.2882 10.142C10.2719 10.1474 10.2557 10.152 10.2398 10.1578C5.94009 11.6546 4.53595 14.671 4.52076 14.704C5.75793 15.6647 7.30968 16.2443 8.99977 16.2443C10.009 16.2443 10.9703 16.0391 11.8449 15.6676C11.737 15.0318 11.3136 12.8033 10.2882 10.142ZM13.072 15.0027C14.7083 13.9001 15.8705 12.1492 16.1946 10.1211C16.0446 10.0729 14.0058 9.42835 11.6536 9.80493C12.6095 12.428 12.9978 14.5642 13.072 15.0027ZM10.5678 7.22437C10.7369 7.5714 10.9007 7.92459 11.0519 8.27956C11.1057 8.4069 11.1582 8.53174 11.2095 8.65654C13.7129 8.34196 16.1793 8.87123 16.2847 8.89284C16.2681 7.16777 15.6501 5.58454 14.6276 4.34504C14.6138 4.36455 13.445 6.05097 10.5678 7.22437Z" fill="white"/>
</svg>
