<svg width="26" height="26" viewBox="0 0 40 40" fill="none" xmlns="http://www.w3.org/2000/svg">
<g clip-path="url(#clip0_2293_10365)">
<path fill-rule="evenodd" clip-rule="evenodd" d="M13.6203 26.3818C20.0287 32.7901 25.967 33.4918 27.7103 33.5568C29.817 33.6334 31.967 31.9134 32.897 30.1518C31.4137 28.4118 29.482 27.0618 27.3653 25.5984C26.1187 26.8451 24.582 29.1618 22.532 28.3318C21.367 27.8634 18.4903 26.5384 15.977 24.0234C13.462 21.5101 12.1387 18.6334 11.667 17.4701C10.837 15.4184 13.1603 13.8768 14.4087 12.6284C12.9453 10.4784 11.6187 8.49678 9.88199 7.08845C8.09532 8.02178 6.36532 10.1551 6.44366 12.2901C6.50866 14.0334 7.21033 19.9718 13.6203 26.3818ZM27.587 36.8868C25.187 36.7984 18.3853 35.8601 11.262 28.7368C4.14033 21.6151 3.20199 14.8151 3.11199 12.4134C2.97866 8.75345 5.78199 5.19845 9.02033 3.81012C9.41029 3.64173 9.83733 3.57762 10.2595 3.62407C10.6818 3.67053 11.0846 3.82596 11.4287 4.07511C14.1087 6.03011 15.957 8.99178 17.5453 11.3118C17.8757 11.7942 18.0271 12.377 17.9732 12.9592C17.9194 13.5414 17.6636 14.0865 17.2503 14.5001L14.9903 16.7618C15.5153 17.9201 16.5837 19.9168 18.3337 21.6668C20.0837 23.4168 22.0803 24.4851 23.2403 25.0101L25.4987 22.7501C25.9139 22.3359 26.4612 22.0805 27.0454 22.0285C27.6295 21.9764 28.2134 22.1309 28.6953 22.4651C31.062 24.1051 33.842 25.9268 35.8687 28.5218C36.138 28.8683 36.3094 29.2808 36.3648 29.7162C36.4202 30.1516 36.3577 30.5938 36.1837 30.9968C34.7887 34.2518 31.2587 37.0234 27.587 36.8884V36.8868Z" fill="white"/>
</g>
<defs>
<clipPath id="clip0_2293_10365">
<rect width="40" height="40" fill="white"/>
</clipPath>
</defs>
</svg>
