<svg width="16" height="14" viewBox="0 0 16 14" fill="none" xmlns="http://www.w3.org/2000/svg">
<path fill-rule="evenodd" clip-rule="evenodd" d="M7.5208 3.98447L7.55438 4.5381L6.99479 4.47031C4.95791 4.21044 3.17843 3.32914 1.66756 1.84901L0.928908 1.1146L0.73865 1.65694C0.33575 2.8659 0.593158 4.14265 1.43253 5.00135C1.8802 5.4759 1.77948 5.54369 1.00725 5.26122C0.73865 5.17083 0.503625 5.10304 0.481242 5.13694C0.4029 5.21603 0.6715 6.24421 0.884142 6.65096C1.17513 7.2159 1.76828 7.76953 2.4174 8.09719L2.96579 8.35706L2.31668 8.36836C1.68994 8.36836 1.66756 8.37966 1.73471 8.61693C1.95854 9.35135 2.84268 10.131 3.82755 10.4699L4.52143 10.7072L3.91708 11.0688C3.02175 11.5885 1.96973 11.8823 0.917717 11.9049C0.414092 11.9162 0 11.9613 0 11.9952C0 12.1082 1.36538 12.741 2.15999 12.9895C4.54382 13.7239 7.37531 13.4076 9.50173 12.1534C11.0126 11.2608 12.5235 9.48693 13.2286 7.76953C13.6091 6.85434 13.9896 5.18213 13.9896 4.37992C13.9896 3.86018 14.0232 3.79239 14.6499 3.17096C15.0192 2.8094 15.3662 2.41395 15.4333 2.30096C15.5452 2.08629 15.534 2.08629 14.9633 2.27837C14.012 2.61733 13.8777 2.57213 14.3477 2.06369C14.6947 1.70213 15.1088 1.04681 15.1088 0.854729C15.1088 0.820833 14.9409 0.877327 14.7506 0.979015C14.5492 1.092 14.1015 1.26148 13.7658 1.36317L13.1614 1.55525L12.613 1.18239C12.3108 0.979015 11.8856 0.753041 11.6617 0.685249C11.0909 0.527067 10.218 0.549665 9.70318 0.730444C8.30422 1.23889 7.42008 2.54953 7.5208 3.98447Z" fill="white"/>
</svg>
